<svg width="97" height="118" viewBox="0 0 97 118" fill="none" xmlns="http://www.w3.org/2000/svg">
<path fill-rule="evenodd" clip-rule="evenodd" d="M53.5406 0.00976562L10.2538 74.9847C10.9566 74.8093 11.6733 74.6385 12.4002 74.475C16.6119 73.5278 21.3739 72.7749 25.8652 72.8264C30.217 72.8763 35.1757 73.686 38.9642 76.7152C41.7431 78.9371 43.2463 82.1656 44.1002 85.263C44.9714 88.4229 45.3299 92.038 45.3906 95.7497C45.4974 102.28 44.6867 109.797 43.533 117.049L86.8198 42.0737C86.117 42.2491 85.4004 42.4199 84.6734 42.5834C80.4618 43.5307 75.6998 44.2835 71.2085 44.232C66.8567 44.1821 61.898 43.3724 58.1095 40.3432C55.3306 38.1213 53.8273 34.8928 52.9734 31.7955C52.1023 28.6355 51.7437 25.0204 51.683 21.3087C51.5762 14.7784 52.387 7.26157 53.5406 0.00976562Z" fill="#00A651"/>
</svg>
