<?xml version="1.0" standalone="no"?>
<!DOCTYPE svg PUBLIC "-//W3C//DTD SVG 20010904//EN"
 "http://www.w3.org/TR/2001/REC-SVG-20010904/DTD/svg10.dtd">
<svg version="1.0" xmlns="http://www.w3.org/2000/svg"
 width="64.000000pt" height="64.000000pt" viewBox="0 0 64.000000 64.000000"
 preserveAspectRatio="xMidYMid meet">

<g transform="translate(0.000000,64.000000) scale(0.100000,-0.100000)"
fill="#000000" stroke="none">
<path d="M45 628 c-43 -25 -44 -32 -45 -301 0 -262 3 -286 39 -314 22 -17 523
-18 554 -1 45 24 46 30 47 301 0 262 -3 286 -39 314 -22 17 -527 18 -556 1z
m354 -109 c58 -12 96 -50 106 -103 8 -41 -15 -100 -46 -117 -20 -10 -21 -13
-7 -23 25 -18 36 -48 39 -106 l4 -55 -57 -3 -58 -3 0 49 c0 77 -11 85 -131 91
l-104 6 -3 31 c-2 17 3 36 11 42 7 6 60 13 123 14 l109 3 3 34 c2 18 -2 39 -8
45 -6 6 -60 13 -123 16 l-112 5 -3 28 c-6 49 11 57 114 57 51 0 116 -5 143
-11z m-121 -351 c7 -7 12 -22 12 -35 0 -22 -4 -23 -69 -23 -59 0 -69 3 -74 19
-9 36 10 51 66 51 29 0 58 -5 65 -12z"/>
</g>
</svg>
