<svg width="100%" height="100%" viewBox="0 0 375 812" fill="none" xmlns="http://www.w3.org/2000/svg" preserveAspectRatio="none">
<g clip-path="url(#clip0_3401_8414)">
<rect width="375" height="812" fill="url(#paint0_linear_3401_8414)"/>
<g opacity="0.29" filter="url(#filter4_f_3401_8414)">
<ellipse cx="-5.43495" cy="102.306" rx="164.753" ry="112.298" transform="rotate(-54.1067 -5.43495 102.306)" fill="#00A651"/>
</g>
<g opacity="0.29" filter="url(#filter5_f_3401_8414)">
<ellipse cx="293.565" cy="778.306" rx="164.753" ry="112.298" transform="rotate(-54.1067 293.565 778.306)" fill="#00A651"/>
</g>
<g opacity="0.29" filter="url(#filter6_f_3401_8414)">
<ellipse cx="411.565" cy="866.306" rx="164.753" ry="112.298" transform="rotate(-54.1067 411.565 866.306)" fill="white"/>
</g>
<g opacity="0.23">
<path d="M436.964 467.028C446.399 425.817 398.656 372.632 366.047 446.024C360.7 458.058 348.94 477.18 332.698 499.247C317.82 519.462 279.46 511.588 252.744 533.014C210.847 566.616 248.034 631.637 224.972 648.651C194.767 670.935 151.009 661.398 121.111 665.211C92.9654 668.8 65.7972 685.833 45.4952 708.126C9.87775 747.235 -4.60651 802.533 33.8397 829.826C53.0856 843.489 85.5957 850.133 135.359 844.216C157.608 841.57 176.797 839.924 193.357 839.248C235.982 837.508 197.687 880.804 232.042 904.796C251.617 918.467 298.861 889.977 300.895 922.239C302.342 945.179 303.35 972.545 309.601 1003.95C320.579 1059.1 358.26 1089.81 395.038 1043.97C412.4 1022.33 429.56 983.624 443.615 922.376C452.609 883.181 479.699 901.736 508.75 862.49C537.802 823.245 523.529 787.808 553.188 782.616L553.782 782.512C576.388 778.555 600.498 774.336 625.619 752.954C647.258 734.537 660.814 711.361 665.205 689.777C669.905 666.677 664.105 645.4 646.479 633.73C628.793 622.02 599.199 619.981 556.356 635.477C528.109 645.693 546.711 592.393 515.62 579.552C484.528 566.71 452.422 609.267 443.765 585.665C428.727 544.665 425.914 515.293 436.964 467.028Z" stroke="url(#paint1_radial_3401_8414)" stroke-opacity="0.56" stroke-width="0.6"/>
<path d="M378.077 687.174C379.541 680.857 370.341 676.991 366.391 682.356C361.894 688.465 359.592 698.655 355.227 704.868C346.799 716.863 340.621 717.91 328.629 719.501C324.333 720.068 320.178 722.693 317.067 726.119C311.61 732.129 309.367 740.607 315.216 744.763C318.144 746.844 323.1 747.842 330.695 746.906C334.091 746.488 337.02 746.224 339.547 746.111C350.813 745.192 355.145 754.158 355.903 758.755C356.11 762.268 356.247 766.458 357.182 771.263C358.824 779.702 366.796 783.726 370.193 777.341C374.991 768.32 381.85 727.722 399.327 730.844C407.445 732.294 410.939 726.246 411.622 722.938C412.352 719.397 411.48 716.142 408.798 714.366C406.107 712.583 398.473 714.699 395.048 714.687C382.405 714.645 372.455 712.483 378.077 687.174Z" stroke="url(#paint2_radial_3401_8414)" stroke-opacity="0.56" stroke-width="0.6"/>
<path d="M366.544 466.864C396.449 400.188 440.067 448.81 431.417 486.59C420.862 532.79 424.327 559.713 439.158 597.024C447.19 618.5 476.652 579.734 505.184 591.392C533.715 603.05 517.025 651.537 542.848 642.323C582.073 628.388 609.08 630.538 625.107 641.512C641.114 652.28 646.297 671.85 641.844 693.024C637.67 712.819 625.073 734.008 605.017 750.698C580.374 770.033 557.644 777.436 536.487 781.878C509.348 786.89 522.078 819.184 495.408 854.775C468.737 890.366 443.87 873.201 435.612 908.48C422.739 963.77 407.113 998.604 391.297 1017.98C357.8 1059.48 323.398 1031.22 313.173 980.801C307.249 951.985 305.976 926.903 304.148 906.071C302.067 876.727 258.817 902.671 240.697 890.269C209.094 868.48 243.652 829.086 204.637 830.632C189.337 831.21 171.699 832.637 151.323 834.949C105.513 839.954 76.1342 833.141 59.1161 820.168C24.2753 795.181 37.6169 744.733 70.2006 709.047C88.8499 688.661 113.76 673.093 139.564 669.803C167.854 666.195 208.228 674.781 236.471 653.425C257.651 637.665 223.964 578.136 262.236 547.195C286.694 527.333 321.749 534.13 335.489 515.462C350.444 495.143 361.442 477.714 366.544 466.864Z" stroke="url(#paint3_radial_3401_8414)" stroke-opacity="0.56" stroke-width="0.6"/>
<path d="M367.089 488.598C394.176 428.848 433.622 472.808 425.807 507.045C415.808 551.04 419.939 575.443 434.563 608.975C441.973 628.272 468.7 593.429 494.625 603.894C520.55 614.36 505.845 657.886 529.186 649.722C564.704 637.417 589.071 639.694 603.417 649.915C617.783 659.764 622.356 677.577 618.174 696.762C614.243 714.71 602.648 733.842 584.227 748.741C560.347 765.767 539.254 776.425 519.765 781.29C495.204 786.084 506.392 815.157 482.185 846.973C457.977 878.789 435.367 863.041 427.889 894.3C416.269 943.47 402.236 974.325 388.012 991.362C357.896 1028.38 326.818 1002.64 317.324 957.073C311.715 930.918 310.161 908.189 307.938 889.52C305.79 863.174 266.64 886.463 250.003 875.349C221.196 855.798 251.916 820.443 216.59 821.758C202.582 822.225 186.53 823.414 168.068 825.369C126.307 829.41 100.11 822.426 85.3423 810.166C54.1551 787.525 66.2863 742.078 95.7427 709.941C112.686 691.534 135.276 677.494 158.683 674.534C185.307 671.165 222.224 678.81 248.43 658.466C267.673 644.022 237.504 590.122 272.048 561.961C294.184 543.737 325.871 549.468 338.429 532.412C352.051 513.91 362.251 498.229 367.089 488.598Z" stroke="url(#paint4_radial_3401_8414)" stroke-opacity="0.56" stroke-width="0.6"/>
<path d="M367.583 509.436C391.967 456.405 427.283 495.799 420.254 526.605C410.752 568.534 415.534 590.488 429.951 620.332C436.736 637.501 460.818 606.45 484.182 615.73C507.546 625.011 494.753 663.724 515.668 656.563C547.567 645.817 569.346 648.205 582.031 657.69C594.777 666.636 598.733 682.741 594.796 700C591.083 716.157 580.447 733.303 563.608 746.473C540.423 761.264 520.918 775.222 503.05 780.541C481.012 785.156 490.654 811.084 468.828 839.246C447.002 867.407 426.615 853.05 419.872 880.392C409.431 923.603 396.931 950.589 384.253 965.356C357.419 998.031 329.622 974.75 320.882 933.916C315.601 910.347 313.782 889.902 311.178 873.342C308.985 849.914 273.829 870.657 258.649 860.812C232.596 843.465 259.577 812.013 227.863 813.135C215.116 813.503 200.616 814.474 184.026 816.096C146.22 819.224 123.156 812.074 110.617 800.505C83.0383 780.171 94.0278 739.576 120.45 710.862C135.74 694.361 156.072 681.787 177.136 679.125C202.153 675.961 235.684 682.653 259.927 663.237C277.287 650.048 250.622 601.642 281.538 576.142C301.416 559.481 329.796 564.134 341.215 548.625C353.551 531.871 362.989 517.883 367.583 509.436Z" stroke="url(#paint5_radial_3401_8414)" stroke-opacity="0.56" stroke-width="0.6"/>
<path d="M368.511 530.546C390.203 484.242 421.313 519.022 415.055 546.387C406.026 586.24 411.437 605.729 425.606 631.857C431.743 646.884 453.175 619.621 473.94 627.694C494.705 635.767 483.811 669.656 502.28 663.484C530.527 654.278 549.687 656.76 560.689 665.494C571.791 673.522 575.111 687.908 571.411 703.235C567.907 717.598 558.23 732.755 542.985 744.204C520.512 756.771 502.604 774.043 486.377 779.83C466.885 784.28 474.948 807.044 455.509 831.553C436.07 856.062 417.944 843.119 411.923 866.534C402.643 903.77 391.671 926.882 380.544 939.381C357 967.717 332.539 946.933 324.596 910.855C319.668 889.889 317.603 871.741 314.634 857.299C312.415 836.805 281.283 855.017 267.587 846.46C244.335 831.348 267.566 803.793 239.504 804.745C228.034 805.027 215.103 805.789 200.407 807.09C166.601 809.334 146.705 802.037 136.422 791.174C112.503 773.18 122.369 737.447 145.746 712.151C159.377 697.554 177.434 686.434 196.13 684.057C219.511 681.079 249.609 686.788 271.874 668.289C287.339 656.346 264.251 613.48 291.52 590.629C309.128 575.524 334.161 579.073 344.439 565.111C355.486 550.104 364.161 537.807 368.511 530.546Z" stroke="url(#paint6_radial_3401_8414)" stroke-opacity="0.56" stroke-width="0.6"/>
<path d="M369.002 552.347C387.94 512.867 414.859 543.008 409.402 566.88C400.891 604.583 406.945 621.58 420.88 643.962C426.381 656.829 445.121 633.421 463.282 640.293C481.443 647.165 472.487 676.164 488.492 671.011C513.059 663.388 529.591 665.977 538.909 673.957C548.368 681.066 551.067 693.713 547.621 707.08C544.342 719.621 535.646 732.757 522.017 742.45C500.287 752.753 484.003 773.29 469.432 779.519C452.503 783.777 459.006 803.348 441.991 824.146C424.977 844.944 409.111 833.418 403.84 852.863C395.764 884.057 386.351 903.246 376.794 913.446C356.584 937.374 335.454 919.096 328.279 887.825C323.686 869.492 321.359 853.667 318.013 841.366C315.75 823.836 288.681 839.458 276.47 832.187C256.018 819.311 275.458 795.721 251.067 796.476C240.882 796.658 229.529 797.198 216.738 798.161C186.958 799.485 170.237 792.035 162.204 781.883C141.942 766.234 150.642 735.432 170.933 713.617C182.881 700.96 198.64 691.332 214.953 689.26C236.679 686.496 263.329 691.243 283.583 673.713C297.131 663.052 277.592 625.771 301.174 605.635C316.485 592.128 338.159 594.592 347.276 582.209C357.012 568.984 364.906 558.407 369.002 552.347Z" stroke="url(#paint7_radial_3401_8414)" stroke-opacity="0.56" stroke-width="0.6"/>
<path d="M369.486 573.179C385.721 540.423 408.502 565.991 403.829 586.43C395.811 622.073 402.517 636.618 416.246 655.307C421.12 666.043 437.213 646.429 452.809 652.113C468.404 657.798 461.362 681.979 474.939 677.828C495.881 671.765 509.82 674.464 517.476 681.708C525.311 687.913 527.39 698.85 524.188 710.29C521.126 721.04 513.389 732.187 501.343 740.151C480.306 748.217 465.608 772.072 452.659 778.759C438.256 782.84 443.209 799.263 428.577 816.403C413.945 833.543 400.307 823.41 395.77 838.933C388.874 864.16 380.995 879.475 372.985 887.402C356.06 906.984 338.218 891.173 331.8 864.635C327.537 848.891 324.946 835.353 321.218 825.163C318.91 810.555 295.84 823.63 285.088 817.631C267.394 806.964 283.091 787.279 262.317 787.842C253.396 787.927 243.596 788.249 232.68 788.879C206.86 789.291 193.277 781.673 187.479 772.212C170.833 758.873 178.392 732.927 195.647 714.537C205.94 703.788 219.439 695.625 233.405 693.851C253.523 691.289 276.783 695.08 295.074 678.473C306.738 669.066 290.711 637.286 310.663 619.811C323.713 607.866 342.075 609.249 350.053 598.413C358.502 586.937 365.634 578.053 369.486 573.179Z" stroke="url(#paint8_radial_3401_8414)" stroke-opacity="0.56" stroke-width="0.6"/>
<path d="M370.399 594.278C383.935 568.256 402.505 589.205 398.602 606.199C391.045 639.771 398.375 651.842 411.851 666.802C416.077 675.393 429.515 659.571 442.508 664.045C455.502 668.518 450.36 687.868 461.487 684.708C478.771 680.186 490.087 682.979 496.055 689.473C502.244 694.76 503.687 703.978 500.722 713.484C497.87 722.439 491.094 731.598 480.645 737.84C460.332 743.69 447.209 770.873 435.899 778.032C424.043 781.949 427.418 795.206 415.178 808.69C402.938 822.175 391.567 813.457 387.756 825.048C382.026 844.294 375.681 855.729 369.226 861.385C355.597 876.621 341.096 863.309 335.478 841.534C331.571 828.397 328.735 817.161 324.643 809.097C322.311 797.427 303.27 807.97 294.005 803.261C279.115 794.833 291.059 779.053 273.942 779.447C266.301 779.446 258.073 779.561 249.053 779.87C227.244 779.398 216.837 771.63 213.297 762.871C200.315 751.872 206.748 730.794 220.952 715.825C229.584 706.98 240.805 700.273 252.4 698.782C270.876 696.398 290.698 699.202 307.012 683.507C316.781 675.347 304.335 649.111 320.637 634.287C331.416 623.899 346.43 624.176 353.267 614.887C360.426 605.159 366.793 597.966 370.399 594.278Z" stroke="url(#paint9_radial_3401_8414)" stroke-opacity="0.56" stroke-width="0.6"/>
<path d="M371.028 615.197C381.851 595.912 396.334 612.317 393.229 625.881C386.184 657.426 394.203 667.058 407.523 678.341C411.139 684.808 421.934 672.792 432.388 676.093C442.841 679.394 439.632 693.923 448.343 691.779C462.024 688.837 470.766 691.759 475.084 697.53C479.664 701.922 480.498 709.438 477.782 717.017C475.149 724.182 469.331 731.349 460.454 735.85C440.791 739.438 429.256 769.985 419.555 777.604C410.211 781.334 412.051 791.451 402.191 801.265C392.33 811.078 383.158 803.734 380.09 811.396C375.553 824.665 370.748 832.215 365.837 835.587C355.493 846.461 344.245 835.592 339.348 818.537C335.747 807.978 332.626 799.021 328.13 793.062C325.733 784.31 310.675 792.287 302.847 788.84C290.681 782.603 298.875 770.739 285.35 770.921L284.981 770.915C278.701 770.809 272.133 770.699 265.114 770.664C247.228 769.25 239.941 761.289 238.629 753.205C229.234 744.498 234.513 728.277 245.685 716.745C252.667 709.814 261.636 704.582 270.901 703.402C287.807 701.238 304.275 703.108 318.642 688.335C326.532 681.434 317.555 660.673 330.233 648.521C338.757 639.7 350.481 638.905 356.18 631.166C362.053 623.189 367.662 617.695 371.028 615.197Z" stroke="url(#paint10_radial_3401_8414)" stroke-opacity="0.56" stroke-width="0.6"/>
<path d="M371.469 636.994C379.537 624.533 389.807 636.285 387.502 646.35C380.973 675.708 389.615 682.839 402.672 690.368C405.645 694.671 413.742 686.509 421.579 688.604C429.416 690.7 428.139 700.336 434.378 699.206C444.367 697.84 450.472 700.861 453.102 705.87C456.034 709.338 456.243 715.109 453.782 720.725C451.377 726.065 446.543 731.208 439.291 733.957C420.403 735.291 410.496 769.053 402.46 777.105C395.687 780.644 395.965 787.562 388.534 793.667C381.104 799.771 374.206 793.854 371.887 797.549C368.552 804.778 365.306 808.409 361.969 809.488C354.962 815.956 347.06 807.606 342.944 795.368C339.688 787.45 336.316 780.824 331.455 777.008C329.022 771.224 318.037 776.614 311.705 774.458C302.357 770.464 306.761 762.566 296.921 762.556C291.822 762.352 286.72 762.02 281.474 761.651C267.635 759.329 263.528 751.229 264.466 743.868C258.737 737.514 262.851 726.229 270.932 718.179C276.226 713.189 282.891 709.447 289.763 708.57C304.989 706.615 317.99 707.516 330.331 693.724C336.3 688.108 330.885 672.948 339.869 663.513C346.092 656.294 354.446 654.415 358.98 648.259C363.54 642.067 368.362 638.293 371.469 636.994Z" stroke="url(#paint11_radial_3401_8414)" stroke-opacity="0.56" stroke-width="0.6"/>
<path d="M372.496 658.191C377.829 652.506 383.921 659.642 382.407 666.238C376.374 693.473 385.648 698.121 398.464 701.918C400.8 704.073 406.222 699.735 411.466 700.632C416.71 701.529 417.355 706.306 421.143 706.185C427.469 706.386 430.955 709.512 431.908 713.771C433.204 716.324 432.79 720.368 430.578 724.038C428.395 727.57 424.536 730.708 418.89 731.717C400.747 730.812 392.433 767.842 386.04 776.342C381.816 779.695 380.537 783.44 375.517 785.861C370.497 788.282 365.852 783.776 364.278 783.525C362.139 784.749 360.443 784.482 358.668 783.276C354.975 785.367 350.393 779.511 347.049 772.053C344.134 766.752 340.506 762.438 335.274 760.753C332.802 757.917 325.857 760.739 321.005 759.867C314.447 758.101 315.085 754.142 308.899 753.941C305.08 753.642 301.549 753.093 298.199 752.391C288.37 749.161 287.427 740.907 290.608 734.252C288.522 730.23 291.482 723.842 296.496 719.248C300.118 716.182 304.498 713.917 309 713.339C322.575 711.585 332.142 711.52 342.49 698.68C346.554 694.332 344.68 684.725 350.001 677.981C353.943 672.344 358.955 669.381 362.337 664.79C365.595 660.365 369.641 658.297 372.496 658.191Z" stroke="url(#paint12_radial_3401_8414)" stroke-opacity="0.56" stroke-width="0.6"/>
</g>
<g opacity="0.18">
<path d="M115.15 -220.678C128.389 -260.829 85.8171 -318.237 46.5017 -248.207C40.0553 -236.725 26.5618 -218.785 8.3321 -198.329C-8.36737 -179.59 -45.8256 -191.01 -74.4236 -172.17C-119.274 -142.624 -88.3161 -74.417 -112.865 -59.6291C-145.018 -40.2606 -187.695 -53.8396 -217.818 -52.8335C-246.176 -51.8864 -274.815 -37.4627 -297.109 -17.1617C-336.22 18.4539 -355.801 72.1589 -320.07 102.92C-302.183 118.319 -270.434 127.968 -220.336 126.72C-197.937 126.163 -178.679 126.314 -162.127 127.186C-119.526 129.431 -161.695 168.965 -129.728 196.058C-111.514 211.496 -61.8178 187.538 -62.8025 219.85C-63.5026 242.825 -65.0527 270.165 -61.7592 302.014C-55.9752 357.945 -21.3246 392.045 19.5709 349.832C38.8759 329.905 59.5727 292.973 79.2813 233.304C91.8938 195.119 117.134 216.121 149.721 179.757C182.308 143.394 171.404 106.78 201.418 104.378L202.019 104.33C224.896 102.5 249.295 100.549 276.301 81.6049C299.563 65.2867 315.224 43.4771 321.61 22.3968C328.444 -0.163744 324.655 -21.8889 308.195 -35.1533C291.679 -48.4624 262.404 -53.2535 218.302 -41.8236C189.225 -34.2876 212.72 -85.619 182.962 -101.306C153.204 -116.993 117.268 -77.617 110.851 -101.924C99.7042 -144.148 99.6436 -173.655 115.15 -220.678Z" stroke="url(#paint13_radial_3401_8414)" stroke-opacity="0.56" stroke-width="0.6"/>
<path d="M35.9771 -6.9879C38.0243 -13.1404 29.2252 -17.8478 24.792 -12.8747C19.7443 -7.21234 16.501 2.71819 11.5755 8.49666C2.06532 19.6537 -4.1834 20.1193 -16.2721 20.5847C-20.6023 20.7479 -24.9841 22.9735 -28.4008 26.0943C-34.3951 31.5695 -37.4192 39.8004 -31.9836 44.4846C-29.2625 46.8296 -24.4215 48.2857 -16.7719 48.0626C-13.3517 47.9628 -10.4115 47.9737 -7.88495 48.0965C3.41807 48.2333 6.89469 57.5641 7.22013 62.2125C7.09847 65.7287 6.84425 69.9135 7.32664 74.785C8.17379 83.3402 15.7354 88.0908 19.7132 82.0502C25.3326 73.5163 35.95 33.7352 53.0593 38.4747C61.0068 40.6762 65.0494 34.9802 66.0379 31.7503C67.0959 28.2936 66.5314 24.9715 64.0268 22.9523C61.5137 20.9263 53.7153 22.3204 50.3065 21.9893C37.7227 20.7673 28.0175 17.6866 35.9771 -6.9879Z" stroke="url(#paint14_radial_3401_8414)" stroke-opacity="0.56" stroke-width="0.6"/>
<path d="M45.052 -227.413C81.0484 -291.007 119.939 -238.527 107.802 -201.719C92.9815 -156.705 93.9187 -129.576 105.203 -91.0442C111.197 -68.9127 144.147 -104.76 171.467 -90.4909C198.786 -76.2215 177.644 -29.5038 204.215 -36.2673C244.569 -46.4818 271.257 -41.8211 286.19 -29.399C301.122 -17.1841 304.457 2.7839 298.047 23.45C292.045 42.7692 277.525 62.69 255.999 77.4353C229.66 94.3866 206.338 99.6368 184.859 102.085C157.371 104.543 167.031 137.884 137.156 170.831C107.281 203.778 84.124 184.367 72.6097 218.722C54.6338 272.569 35.8255 305.793 18.271 323.604C-18.9524 361.8 -50.5677 330.457 -56.0435 279.302C-59.2527 250.059 -58.179 224.968 -58.0552 204.056C-57.3893 174.646 -102.872 196.44 -119.755 182.402C-149.187 157.759 -111.104 121.762 -150.092 119.66C-165.38 118.809 -183.074 118.583 -203.577 118.984C-249.654 119.692 -278.269 110.168 -294.002 95.6634C-326.36 67.534 -308.369 18.5513 -272.597 -13.9389C-252.127 -32.4957 -225.873 -45.6714 -199.875 -46.539C-171.371 -47.4914 -131.974 -35.1755 -101.862 -53.8032C-79.3037 -67.5178 -107.289 -129.931 -66.2972 -157.165C-40.0925 -174.659 -5.824 -164.62 9.59746 -181.924C26.3835 -200.759 38.96 -217.086 45.052 -227.413Z" stroke="url(#paint15_radial_3401_8414)" stroke-opacity="0.56" stroke-width="0.6"/>
<path d="M43.5665 -205.723C76.1113 -262.684 111.283 -215.235 100.307 -181.876C86.2467 -139.007 88.0821 -114.325 99.5138 -79.574C105.091 -59.6706 134.953 -91.8675 159.788 -79.0286C184.623 -66.1897 165.921 -24.2255 189.921 -30.1757C226.433 -39.1129 250.481 -34.5715 263.81 -23.0563C277.195 -11.9099 280.085 6.25149 274.132 24.9631C268.543 42.4653 255.213 60.4323 235.483 73.5471C210.118 88.2712 188.123 96.9138 168.264 99.9388C143.364 102.421 151.789 132.41 124.719 161.829C97.6486 191.247 76.6064 173.458 66.2444 203.883C50.0865 251.754 33.2352 281.165 17.4841 296.8C-15.9545 330.846 -44.4949 302.315 -49.6958 256.065C-52.8396 229.501 -52.2666 206.725 -52.7374 187.931C-52.4174 161.499 -93.5696 181.033 -109.097 168.415C-135.954 146.261 -102.07 113.928 -137.364 111.941C-151.355 111.098 -167.447 110.784 -186.011 111.008C-227.967 111.134 -253.398 101.736 -266.957 88.1517C-295.896 62.6996 -279.577 18.583 -247.25 -10.6653C-228.663 -27.4113 -204.861 -39.2815 -181.28 -40.0442C-154.458 -40.9143 -118.415 -29.8583 -90.4251 -47.6681C-69.9187 -60.2533 -94.9265 -116.733 -57.9055 -141.548C-34.1658 -157.627 -3.15195 -148.964 10.943 -164.774C26.2326 -181.925 37.851 -196.585 43.5665 -205.723Z" stroke="url(#paint16_radial_3401_8414)" stroke-opacity="0.56" stroke-width="0.6"/>
<path d="M42.1136 -184.929C71.3404 -235.453 102.826 -192.936 92.9531 -162.92C79.5798 -122.061 82.2924 -99.7566 93.8619 -68.6971C99.015 -50.9702 125.89 -79.6388 148.286 -68.2184C170.681 -56.798 154.332 -19.4476 175.824 -24.6261C208.586 -32.3486 230.048 -27.9384 241.793 -17.3111C253.648 -7.21505 256.084 9.18844 250.554 26.005C245.349 41.7457 233.159 57.8235 215.165 69.3651C190.701 81.9286 169.979 94.005 151.693 97.6338C129.32 100.172 136.5 126.887 112.141 152.889C87.7827 178.891 68.8246 162.694 59.5594 189.288C45.1325 231.335 30.1688 257.037 16.1681 270.557C-13.5982 300.586 -39.1012 274.813 -43.9924 233.341C-47.0513 209.382 -46.9546 188.857 -48.0017 172.126C-47.9999 148.596 -84.9371 165.967 -99.1324 154.749C-123.453 135.047 -93.6555 106.249 -125.335 104.406C-138.061 103.584 -152.589 103.197 -169.257 103.264C-207.191 102.851 -229.487 93.5801 -240.891 80.8913C-266.452 58.0731 -251.723 18.6799 -222.736 -7.44319C-205.973 -22.445 -184.557 -33.0675 -163.336 -33.7514C-138.133 -34.5673 -105.373 -24.7755 -79.4239 -41.8446C-60.9092 -53.3567 -82.9409 -104.04 -49.7798 -126.544C-28.4343 -141.277 -0.612501 -133.996 12.2043 -148.372C26.05 -163.901 36.7519 -176.948 42.1136 -184.929Z" stroke="url(#paint17_radial_3401_8414)" stroke-opacity="0.56" stroke-width="0.6"/>
<path d="M41.0685 -163.825C66.9867 -207.902 94.7156 -170.371 85.9305 -143.71C73.2223 -104.873 76.791 -84.9643 88.4603 -57.6281C93.1688 -42.0942 117.051 -67.2378 136.972 -57.2628C156.893 -47.2878 142.884 -14.5632 161.849 -18.9843C190.831 -25.5143 209.677 -21.2558 219.815 -11.5328C230.119 -2.50377 232.083 12.129 226.969 27.0441C222.14 41.0173 211.09 55.2055 194.844 65.1814C171.296 75.597 151.855 91.1229 135.158 95.3703C115.336 97.9819 121.24 121.399 99.5986 143.987C77.9572 166.575 61.1184 151.997 52.9386 174.748C40.2243 210.956 27.1439 232.943 14.8985 244.349C-11.1867 270.364 -33.6015 247.388 -38.1427 210.727C-41.093 189.393 -41.4558 171.131 -43.0645 156.476C-43.3613 135.864 -76.0564 151.091 -88.8942 141.293C-110.635 124.077 -84.9343 98.81 -112.963 97.1401C-124.409 96.3498 -137.355 95.9022 -152.108 95.826C-185.976 94.9059 -205.103 85.7847 -214.328 74.0088C-236.463 53.8613 -223.306 19.2055 -197.671 -3.79911C-182.738 -17.0609 -163.722 -26.4467 -144.886 -27.0692C-121.329 -27.8527 -91.8947 -19.3598 -68.0007 -35.7007C-51.4886 -46.148 -70.4761 -90.9817 -41.1931 -111.188C-22.2532 -124.584 2.33931 -118.715 13.8759 -131.657C26.2754 -145.568 36.06 -157.001 41.0685 -163.825Z" stroke="url(#paint18_radial_3401_8414)" stroke-opacity="0.56" stroke-width="0.6"/>
<path d="M39.5223 -142.073C62.0624 -179.614 86.0511 -147.093 78.3898 -123.833C66.3981 -87.0895 70.8394 -69.602 82.6259 -46.0164C86.9022 -32.6926 107.744 -54.2503 125.185 -45.7136C142.625 -37.1769 131.003 -9.13946 147.419 -12.7769C172.589 -18.0746 188.807 -13.9541 197.341 -5.13872C206.095 2.82159 207.602 15.665 202.923 28.6521C198.489 40.8328 188.605 53.0998 174.131 61.4789C151.534 69.7087 133.405 88.6374 118.316 93.4788C101.064 96.139 105.712 116.231 86.831 135.351C67.9498 154.471 53.2293 141.514 46.1665 160.383C35.2146 190.686 24.0525 208.913 13.585 218.177C-8.76927 240.115 -28.1014 219.945 -32.3274 188.141C-35.1891 169.459 -36.0297 153.487 -38.2134 140.927C-38.8302 123.262 -67.2392 136.29 -78.7188 127.912C-97.88 113.183 -76.3236 91.5104 -100.678 89.9856C-110.835 89.2164 -122.189 88.6952 -135.015 88.4604C-164.788 86.9992 -180.742 78.0212 -187.792 67.1649C-206.505 49.6927 -194.969 19.8375 -172.731 0.0112375C-159.654 -11.4758 -143.065 -19.5915 -126.63 -20.1318C-104.741 -20.8574 -78.6502 -13.6443 -56.849 -29.2078C-42.3646 -38.5577 -58.3402 -77.499 -32.9815 -95.3471C-16.4772 -107.367 4.87195 -102.89 15.1048 -114.369C26.0327 -126.627 34.8789 -136.421 39.5223 -142.073Z" stroke="url(#paint19_radial_3401_8414)" stroke-opacity="0.56" stroke-width="0.6"/>
<path d="M38.0607 -121.287C57.2813 -152.385 77.5768 -124.802 71.0173 -104.889C59.7081 -70.1494 65.0282 -55.0423 76.9532 -35.1539C80.8041 -24.0096 98.6575 -42.0367 113.654 -34.9218C128.651 -27.8069 119.383 -4.38802 133.288 -7.2538C154.705 -11.337 168.332 -7.34834 175.277 0.578357C182.5 7.48676 183.549 18.5706 179.294 29.6612C175.242 40.0791 166.499 50.4557 153.762 57.2609C132.064 63.3287 115.204 85.7077 101.688 91.1574C86.9665 93.8761 90.3652 110.69 74.1978 126.39C58.0303 142.09 45.3977 130.728 39.4319 145.76C30.2114 170.234 20.9383 184.746 12.2233 191.892C-6.45497 209.809 -22.7436 192.402 -26.6573 165.381C-29.4327 149.308 -30.7497 135.587 -33.5106 125.093C-34.4451 110.334 -58.6344 121.199 -68.7797 114.223C-85.4007 101.952 -67.936 83.8172 -88.6713 82.439C-97.562 81.6912 -107.349 81.0975 -118.276 80.7062C-144.022 78.7068 -156.834 69.8544 -161.724 59.894C-177.053 45.0601 -167.106 19.9326 -148.211 3.23332C-136.959 -6.5088 -122.758 -13.3769 -108.687 -13.8397C-88.4174 -14.5135 -65.6125 -8.56856 -45.8521 -23.3955C-33.3611 -31.6732 -46.3524 -64.8102 -24.8573 -80.3476C-10.7492 -91.0222 7.40331 -87.9325 16.3576 -97.9761C25.841 -108.614 33.7708 -116.793 38.0607 -121.287Z" stroke="url(#paint20_radial_3401_8414)" stroke-opacity="0.56" stroke-width="0.6"/>
<path d="M37.0009 -100.195C52.906 -124.84 69.4398 -102.249 63.9686 -85.6935C53.3115 -52.9734 59.4837 -40.2713 71.5043 -24.1191C74.91 -15.1713 89.7659 -29.6705 102.285 -24.0038C114.805 -18.337 107.88 0.448478 119.253 -1.65924C136.884 -4.5493 147.89 -0.712109 153.225 6.31041C158.895 12.1515 159.471 21.4637 155.632 30.6521C151.956 39.3018 144.356 47.7886 133.37 53.0284C112.6 56.9574 96.9976 82.7974 85.0681 88.8699C72.8988 91.6631 75.0216 105.177 61.577 117.461C48.1325 129.744 37.6238 120.003 32.7485 131.189C25.2474 149.815 17.8633 160.608 10.9083 165.637C-4.08253 179.535 -17.278 164.928 -20.8398 142.724C-23.5045 129.28 -25.2789 117.828 -28.6005 109.417C-29.8338 97.5806 -49.7752 106.301 -58.561 100.748C-72.5991 90.9675 -59.2348 76.371 -76.3136 75.1662C-83.9219 74.4517 -92.1244 73.7981 -101.133 73.264C-122.804 70.7594 -132.441 62.0541 -135.147 53.0027C-147.047 40.8403 -138.675 20.4547 -123.136 6.87684C-113.716 -1.12423 -101.918 -6.75522 -90.2347 -7.15735C-71.6167 -7.80657 -52.1432 -3.16535 -34.4354 -17.2695C-23.9482 -24.4823 -33.8919 -51.7659 -16.2775 -65.0032C-4.57563 -74.3402 10.3468 -72.6639 18.0203 -81.2742C26.0566 -90.2921 33.0665 -96.8589 37.0009 -100.195Z" stroke="url(#paint21_radial_3401_8414)" stroke-opacity="0.56" stroke-width="0.6"/>
<path d="M35.6753 -79.3084C48.2509 -97.4994 61.139 -79.814 56.7825 -66.5992C46.8242 -35.8491 53.9101 -25.5114 66.1185 -13.0343C69.1158 -6.258 80.9848 -17.2148 91.0848 -12.9524C101.185 -8.69003 96.6336 5.47605 105.507 4.1544C119.402 2.50192 127.833 6.22694 131.594 12.375C135.744 17.1758 135.874 24.7362 132.462 32.0294C129.172 38.9176 122.71 45.5096 113.452 49.1629C93.5404 50.9009 79.205 80.2377 68.8352 86.9185C59.1842 89.7606 60.0725 100.005 49.3392 108.856C38.6059 117.706 30.1593 109.538 26.3894 116.88C20.6342 129.668 15.1453 136.736 9.94184 139.636C-1.37196 149.497 -11.5571 137.626 -14.8405 120.188C-17.4413 109.34 -19.7128 100.13 -23.633 93.7779C-25.2032 84.8406 -40.9396 91.3769 -48.4119 87.2145C-59.9422 79.8695 -50.6771 68.8218 -64.1597 67.7414L-64.5269 67.7008C-70.77 67.0096 -77.2988 66.2868 -84.284 65.597C-101.96 62.5205 -108.473 53.9139 -109.024 45.7434C-117.565 36.1973 -110.796 20.5393 -98.5966 10.1005C-90.9988 3.85123 -81.5803 -0.520977 -72.2458 -0.831625C-55.2117 -1.40801 -38.9894 1.98979 -23.3072 -11.3778C-14.8074 -17.5125 -21.8082 -39.0209 -8.0517 -49.9367C1.25808 -57.9238 13.0051 -57.6206 19.4013 -64.7943C25.9937 -72.1885 32.0911 -77.1353 35.6753 -79.3084Z" stroke="url(#paint22_radial_3401_8414)" stroke-opacity="0.56" stroke-width="0.6"/>
<path d="M34.0807 -57.5651C43.2755 -69.219 52.4047 -56.5602 49.17 -46.7544C39.9301 -18.1331 47.8688 -10.2271 60.167 -1.51255C62.7251 3.04922 71.548 -4.32203 79.1554 -1.50434C86.7629 1.31334 84.5922 10.7881 90.91 10.2455C100.983 9.81758 106.778 13.3955 108.93 18.6279C111.526 22.3541 111.195 28.1194 108.221 33.4812C105.328 38.5737 100.036 43.2436 92.5581 45.3038C73.6281 44.869 60.614 77.5594 51.8621 84.8268C44.7886 87.7174 44.419 94.6317 36.4516 100.016C28.4843 105.401 22.1677 98.866 19.5143 102.328C15.5199 109.215 11.9492 112.527 8.52576 113.289C0.946163 119.076 -6.14292 110.025 -9.09854 97.4564C-11.6014 89.2691 -14.3411 82.3569 -18.8248 78.1044C-20.7071 72.1187 -32.1466 76.4598 -38.25 73.7224C-47.1849 68.8732 -42.0625 61.4204 -51.859 60.4924C-56.917 59.8139 -61.9657 59.007 -67.1539 58.1499C-80.7165 54.5466 -84.0495 46.0989 -82.4291 38.858C-87.5395 31.9972 -82.3903 21.1448 -73.5942 13.8844C-67.8577 9.41014 -60.8726 6.30634 -53.9477 6.07392C-38.6062 5.54863 -25.7461 7.65835 -12.1717 -4.92097C-5.70529 -9.95641 -9.68175 -25.5554 0.143915 -34.1104C7.01306 -40.7176 15.5061 -41.8085 20.5947 -47.5151C25.712 -53.2543 30.8657 -56.5621 34.0807 -57.5651Z" stroke="url(#paint23_radial_3401_8414)" stroke-opacity="0.56" stroke-width="0.6"/>
<path d="M33.1245 -36.3653C38.9654 -41.5272 44.3649 -33.8545 42.2417 -27.4278C33.6938 -0.874666 42.4931 4.61859 54.8995 9.59487C57.0244 11.9577 62.8271 8.14519 67.9643 9.5277C73.1015 10.9102 73.2986 15.7262 77.0808 15.9587C83.3609 16.7495 86.5402 20.1872 87.0916 24.5169C88.143 27.1795 87.3534 31.1667 84.8093 34.6144C82.306 37.9276 78.1707 40.6914 72.4558 41.1695C54.4762 38.5754 42.7425 74.6679 35.5852 82.5342C31.0665 85.4787 29.4438 89.0884 24.2197 91.03C18.9955 92.9717 14.7914 88.0524 13.2478 87.6555C11.0033 88.6743 9.33935 88.2499 7.68471 86.8841C3.81344 88.6213 -0.202398 82.3634 -2.83554 74.6258C-5.24398 69.0763 -8.45347 64.442 -13.5054 62.2765C-15.7017 59.2221 -22.8794 61.3841 -27.6292 60.0629C-33.9937 57.693 -32.989 53.8105 -39.1297 53.0333C-42.9043 52.3792 -46.3679 51.5024 -49.6377 50.4909C-59.123 46.3581 -59.2916 38.0525 -55.5039 31.7227C-57.2053 27.5241 -53.6619 21.4403 -48.2412 17.3334C-44.3491 14.6193 -39.7766 12.7732 -35.2407 12.6178C-21.5609 12.1382 -12.0291 12.9663 -0.528665 1.14706C3.9237 -2.80265 2.95373 -12.5424 8.88119 -18.7607C13.3317 -24.005 18.5991 -26.4872 22.3941 -30.7427C26.0511 -34.8438 30.2728 -36.5255 33.1245 -36.3653Z" stroke="url(#paint24_radial_3401_8414)" stroke-opacity="0.56" stroke-width="0.6"/>
</g>
</g>
<defs>
<filter id="filter0_f_3401_8414" x="50.2823" y="468.696" width="94.6101" height="61.3706" filterUnits="userSpaceOnUse" color-interpolation-filters="sRGB">
<feFlood flood-opacity="0" result="BackgroundImageFix"/>
<feBlend mode="normal" in="SourceGraphic" in2="BackgroundImageFix" result="shape"/>
<feGaussianBlur stdDeviation="7.56049" result="effect1_foregroundBlur_3401_8414"/>
</filter>
<filter id="filter1_f_3401_8414" x="65.3411" y="480.086" width="62.1415" height="30.6207" filterUnits="userSpaceOnUse" color-interpolation-filters="sRGB">
<feFlood flood-opacity="0" result="BackgroundImageFix"/>
<feBlend mode="normal" in="SourceGraphic" in2="BackgroundImageFix" result="shape"/>
<feGaussianBlur stdDeviation="1.92075" result="effect1_foregroundBlur_3401_8414"/>
</filter>
<filter id="filter2_f_3401_8414" x="240.992" y="257.741" width="105.672" height="96.2233" filterUnits="userSpaceOnUse" color-interpolation-filters="sRGB">
<feFlood flood-opacity="0" result="BackgroundImageFix"/>
<feBlend mode="normal" in="SourceGraphic" in2="BackgroundImageFix" result="shape"/>
<feGaussianBlur stdDeviation="8.7312" result="effect1_foregroundBlur_3401_8414"/>
</filter>
<filter id="filter3_f_3401_8414" x="263.794" y="274.458" width="58.2683" height="55.7155" filterUnits="userSpaceOnUse" color-interpolation-filters="sRGB">
<feFlood flood-opacity="0" result="BackgroundImageFix"/>
<feBlend mode="normal" in="SourceGraphic" in2="BackgroundImageFix" result="shape"/>
<feGaussianBlur stdDeviation="2.3299" result="effect1_foregroundBlur_3401_8414"/>
</filter>
<filter id="filter4_f_3401_8414" x="-490.124" y="-398.55" width="969.377" height="1001.71" filterUnits="userSpaceOnUse" color-interpolation-filters="sRGB">
<feFlood flood-opacity="0" result="BackgroundImageFix"/>
<feBlend mode="normal" in="SourceGraphic" in2="BackgroundImageFix" result="shape"/>
<feGaussianBlur stdDeviation="176" result="effect1_foregroundBlur_3401_8414"/>
</filter>
<filter id="filter5_f_3401_8414" x="-191.124" y="277.45" width="969.377" height="1001.71" filterUnits="userSpaceOnUse" color-interpolation-filters="sRGB">
<feFlood flood-opacity="0" result="BackgroundImageFix"/>
<feBlend mode="normal" in="SourceGraphic" in2="BackgroundImageFix" result="shape"/>
<feGaussianBlur stdDeviation="176" result="effect1_foregroundBlur_3401_8414"/>
</filter>
<filter id="filter6_f_3401_8414" x="-73.1235" y="365.45" width="969.377" height="1001.71" filterUnits="userSpaceOnUse" color-interpolation-filters="sRGB">
<feFlood flood-opacity="0" result="BackgroundImageFix"/>
<feBlend mode="normal" in="SourceGraphic" in2="BackgroundImageFix" result="shape"/>
<feGaussianBlur stdDeviation="176" result="effect1_foregroundBlur_3401_8414"/>
</filter>
<linearGradient id="paint0_linear_3401_8414" x1="374.893" y1="-58.928" x2="-137.8" y2="721.47" gradientUnits="userSpaceOnUse">
<stop offset="0.0323517" stop-color="#071618"/>
<stop offset="0.862165" stop-color="#040F10"/>
</linearGradient>
<radialGradient id="paint1_radial_3401_8414" cx="0" cy="0" r="1" gradientUnits="userSpaceOnUse" gradientTransform="translate(290.725 597.542) rotate(40.1938) scale(400.632 406.6)">
<stop stop-color="white" stop-opacity="0"/>
<stop offset="1" stop-color="white"/>
</radialGradient>
<radialGradient id="paint2_radial_3401_8414" cx="0" cy="0" r="1" gradientUnits="userSpaceOnUse" gradientTransform="translate(290.725 597.542) rotate(40.1938) scale(400.632 406.6)">
<stop stop-color="white" stop-opacity="0"/>
<stop offset="1" stop-color="white"/>
</radialGradient>
<radialGradient id="paint3_radial_3401_8414" cx="0" cy="0" r="1" gradientUnits="userSpaceOnUse" gradientTransform="translate(290.725 597.542) rotate(40.1938) scale(400.632 406.6)">
<stop stop-color="white" stop-opacity="0"/>
<stop offset="1" stop-color="white"/>
</radialGradient>
<radialGradient id="paint4_radial_3401_8414" cx="0" cy="0" r="1" gradientUnits="userSpaceOnUse" gradientTransform="translate(290.725 597.542) rotate(40.1938) scale(400.632 406.6)">
<stop stop-color="white" stop-opacity="0"/>
<stop offset="1" stop-color="white"/>
</radialGradient>
<radialGradient id="paint5_radial_3401_8414" cx="0" cy="0" r="1" gradientUnits="userSpaceOnUse" gradientTransform="translate(290.725 597.542) rotate(40.1938) scale(400.632 406.6)">
<stop stop-color="white" stop-opacity="0"/>
<stop offset="1" stop-color="white"/>
</radialGradient>
<radialGradient id="paint6_radial_3401_8414" cx="0" cy="0" r="1" gradientUnits="userSpaceOnUse" gradientTransform="translate(290.725 597.542) rotate(40.1938) scale(400.632 406.6)">
<stop stop-color="white" stop-opacity="0"/>
<stop offset="1" stop-color="white"/>
</radialGradient>
<radialGradient id="paint7_radial_3401_8414" cx="0" cy="0" r="1" gradientUnits="userSpaceOnUse" gradientTransform="translate(290.725 597.542) rotate(40.1938) scale(400.632 406.6)">
<stop stop-color="white" stop-opacity="0"/>
<stop offset="1" stop-color="white"/>
</radialGradient>
<radialGradient id="paint8_radial_3401_8414" cx="0" cy="0" r="1" gradientUnits="userSpaceOnUse" gradientTransform="translate(290.725 597.542) rotate(40.1938) scale(400.632 406.6)">
<stop stop-color="white" stop-opacity="0"/>
<stop offset="1" stop-color="white"/>
</radialGradient>
<radialGradient id="paint9_radial_3401_8414" cx="0" cy="0" r="1" gradientUnits="userSpaceOnUse" gradientTransform="translate(290.725 597.542) rotate(40.1938) scale(400.632 406.6)">
<stop stop-color="white" stop-opacity="0"/>
<stop offset="1" stop-color="white"/>
</radialGradient>
<radialGradient id="paint10_radial_3401_8414" cx="0" cy="0" r="1" gradientUnits="userSpaceOnUse" gradientTransform="translate(290.725 597.542) rotate(40.1938) scale(400.632 406.6)">
<stop stop-color="white" stop-opacity="0"/>
<stop offset="1" stop-color="white"/>
</radialGradient>
<radialGradient id="paint11_radial_3401_8414" cx="0" cy="0" r="1" gradientUnits="userSpaceOnUse" gradientTransform="translate(290.725 597.542) rotate(40.1938) scale(400.632 406.6)">
<stop stop-color="white" stop-opacity="0"/>
<stop offset="1" stop-color="white"/>
</radialGradient>
<radialGradient id="paint12_radial_3401_8414" cx="0" cy="0" r="1" gradientUnits="userSpaceOnUse" gradientTransform="translate(290.725 597.542) rotate(40.1938) scale(400.632 406.6)">
<stop stop-color="white" stop-opacity="0"/>
<stop offset="1" stop-color="white"/>
</radialGradient>
<radialGradient id="paint13_radial_3401_8414" cx="0" cy="0" r="1" gradientUnits="userSpaceOnUse" gradientTransform="translate(543.5 112.5) rotate(-171.884) scale(591.424 600.235)">
<stop stop-color="white"/>
<stop offset="1" stop-color="white" stop-opacity="0"/>
</radialGradient>
<radialGradient id="paint14_radial_3401_8414" cx="0" cy="0" r="1" gradientUnits="userSpaceOnUse" gradientTransform="translate(543.5 112.5) rotate(-171.884) scale(591.424 600.235)">
<stop stop-color="white"/>
<stop offset="1" stop-color="white" stop-opacity="0"/>
</radialGradient>
<radialGradient id="paint15_radial_3401_8414" cx="0" cy="0" r="1" gradientUnits="userSpaceOnUse" gradientTransform="translate(543.5 112.5) rotate(-171.884) scale(591.424 600.235)">
<stop stop-color="white"/>
<stop offset="1" stop-color="white" stop-opacity="0"/>
</radialGradient>
<radialGradient id="paint16_radial_3401_8414" cx="0" cy="0" r="1" gradientUnits="userSpaceOnUse" gradientTransform="translate(543.5 112.5) rotate(-171.884) scale(591.424 600.235)">
<stop stop-color="white"/>
<stop offset="1" stop-color="white" stop-opacity="0"/>
</radialGradient>
<radialGradient id="paint17_radial_3401_8414" cx="0" cy="0" r="1" gradientUnits="userSpaceOnUse" gradientTransform="translate(543.5 112.5) rotate(-171.884) scale(591.424 600.235)">
<stop stop-color="white"/>
<stop offset="1" stop-color="white" stop-opacity="0"/>
</radialGradient>
<radialGradient id="paint18_radial_3401_8414" cx="0" cy="0" r="1" gradientUnits="userSpaceOnUse" gradientTransform="translate(543.5 112.5) rotate(-171.884) scale(591.424 600.235)">
<stop stop-color="white"/>
<stop offset="1" stop-color="white" stop-opacity="0"/>
</radialGradient>
<radialGradient id="paint19_radial_3401_8414" cx="0" cy="0" r="1" gradientUnits="userSpaceOnUse" gradientTransform="translate(543.5 112.5) rotate(-171.884) scale(591.424 600.235)">
<stop stop-color="white"/>
<stop offset="1" stop-color="white" stop-opacity="0"/>
</radialGradient>
<radialGradient id="paint20_radial_3401_8414" cx="0" cy="0" r="1" gradientUnits="userSpaceOnUse" gradientTransform="translate(543.5 112.5) rotate(-171.884) scale(591.424 600.235)">
<stop stop-color="white"/>
<stop offset="1" stop-color="white" stop-opacity="0"/>
</radialGradient>
<radialGradient id="paint21_radial_3401_8414" cx="0" cy="0" r="1" gradientUnits="userSpaceOnUse" gradientTransform="translate(543.5 112.5) rotate(-171.884) scale(591.424 600.235)">
<stop stop-color="white"/>
<stop offset="1" stop-color="white" stop-opacity="0"/>
</radialGradient>
<radialGradient id="paint22_radial_3401_8414" cx="0" cy="0" r="1" gradientUnits="userSpaceOnUse" gradientTransform="translate(543.5 112.5) rotate(-171.884) scale(591.424 600.235)">
<stop stop-color="white"/>
<stop offset="1" stop-color="white" stop-opacity="0"/>
</radialGradient>
<radialGradient id="paint23_radial_3401_8414" cx="0" cy="0" r="1" gradientUnits="userSpaceOnUse" gradientTransform="translate(543.5 112.5) rotate(-171.884) scale(591.424 600.235)">
<stop stop-color="white"/>
<stop offset="1" stop-color="white" stop-opacity="0"/>
</radialGradient>
<radialGradient id="paint24_radial_3401_8414" cx="0" cy="0" r="1" gradientUnits="userSpaceOnUse" gradientTransform="translate(543.5 112.5) rotate(-171.884) scale(591.424 600.235)">
<stop stop-color="white"/>
<stop offset="1" stop-color="white" stop-opacity="0"/>
</radialGradient>
<clipPath id="clip0_3401_8414">
<rect width="375" height="812" fill="white"/>
</clipPath>
</defs>
</svg>
