<svg width="297" height="280" viewBox="0 0 297 280" fill="none" xmlns="http://www.w3.org/2000/svg">
<path fill-rule="evenodd" clip-rule="evenodd" d="M60.0527 93L18.4983 164.974C19.173 164.806 19.8609 164.642 20.5588 164.485C24.6019 163.576 29.1733 162.853 33.4849 162.902C37.6625 162.95 42.4227 163.728 46.0596 166.636C48.7273 168.769 50.1704 171.868 50.9901 174.841C51.8264 177.875 52.1706 181.345 52.2289 184.908C52.3314 191.177 51.5531 198.393 50.4456 205.355L92 133.38C91.3254 133.549 90.6374 133.713 89.9396 133.87C85.8964 134.779 81.325 135.502 77.0135 135.452C72.8358 135.405 68.0756 134.627 64.4387 131.719C61.771 129.586 60.3279 126.487 59.5082 123.514C58.6719 120.48 58.3277 117.01 58.2695 113.447C58.1669 107.178 58.9452 99.9616 60.0527 93Z" fill="#00A651"/>
<path d="M103.1 141.634V101.401H118.273C122.162 101.401 125.045 102.235 126.923 103.901C128.82 105.549 129.768 107.953 129.768 111.115C129.768 113.471 129.232 115.444 128.159 117.035C127.105 118.605 125.515 119.755 123.388 120.483V119.104C126.607 119.793 129.011 121.058 130.601 122.897C132.191 124.736 132.987 127.169 132.987 130.196C132.987 133.817 131.818 136.633 129.481 138.645C127.143 140.638 123.944 141.634 119.882 141.634H103.1ZM110.456 135.082H118.79C120.802 135.082 122.402 134.67 123.589 133.846C124.796 133.022 125.4 131.537 125.4 129.392C125.4 127.208 124.768 125.723 123.503 124.937C122.239 124.152 120.668 123.759 118.79 123.759H110.456V135.082ZM110.456 117.207H117.181C118.963 117.207 120.294 116.843 121.175 116.115C122.076 115.387 122.526 114.218 122.526 112.609C122.526 110.942 122.076 109.754 121.175 109.045C120.294 108.317 118.963 107.953 117.181 107.953H110.456V117.207Z" fill="#00A651"/>
<path d="M153.619 142.438C149.787 142.438 146.377 141.576 143.388 139.852C140.399 138.109 138.053 135.676 136.347 132.553C134.642 129.411 133.79 125.732 133.79 121.518C133.79 117.303 134.642 113.634 136.347 110.511C138.053 107.369 140.399 104.936 143.388 103.212C146.377 101.468 149.787 100.597 153.619 100.597C157.45 100.597 160.861 101.468 163.849 103.212C166.838 104.936 169.185 107.369 170.89 110.511C172.595 113.634 173.448 117.303 173.448 121.518C173.448 125.732 172.595 129.411 170.89 132.553C169.185 135.676 166.838 138.109 163.849 139.852C160.861 141.576 157.45 142.438 153.619 142.438ZM153.619 135.312C156.301 135.312 158.542 134.718 160.343 133.53C162.144 132.342 163.495 130.714 164.395 128.644C165.296 126.556 165.746 124.181 165.746 121.518C165.746 118.855 165.296 116.488 164.395 114.419C163.495 112.331 162.144 110.693 160.343 109.505C158.542 108.317 156.301 107.724 153.619 107.724C150.937 107.724 148.695 108.317 146.894 109.505C145.093 110.693 143.743 112.331 142.842 114.419C141.942 116.488 141.491 118.855 141.491 121.518C141.491 124.181 141.942 126.556 142.842 128.644C143.743 130.714 145.093 132.342 146.894 133.53C148.695 134.718 150.937 135.312 153.619 135.312Z" fill="#00A651"/>
<path d="M176.998 141.634V101.401H184.354V135.082H200.907V141.634H176.998Z" fill="#00A651"/>
<path d="M207.142 141.634V108.528H195.762V101.401H225.879V108.528H214.499V141.634H207.142Z" fill="#00A651"/>
<path d="M103.1 195.66V155.428H118.273C122.162 155.428 125.045 156.261 126.923 157.928C128.82 159.576 129.768 161.98 129.768 165.141C129.768 167.497 129.232 169.471 128.159 171.061C127.105 172.632 125.515 173.781 123.388 174.509V173.13C126.607 173.82 129.011 175.084 130.601 176.923C132.191 178.763 132.987 181.196 132.987 184.223C132.987 187.844 131.818 190.66 129.481 192.671C127.143 194.664 123.944 195.66 119.882 195.66H103.1ZM110.456 189.108H118.79C120.802 189.108 122.402 188.696 123.589 187.872C124.796 187.049 125.4 185.564 125.4 183.418C125.4 181.234 124.768 179.749 123.503 178.964C122.239 178.178 120.668 177.785 118.79 177.785H110.456V189.108ZM110.456 171.233H117.181C118.963 171.233 120.294 170.869 121.175 170.141C122.076 169.413 122.526 168.245 122.526 166.635C122.526 164.969 122.076 163.781 121.175 163.072C120.294 162.344 118.963 161.98 117.181 161.98H110.456V171.233Z" fill="#00A651"/>
<path d="M136.204 155.428V195.66H162.527V188.533H143.733V178.245H157.872V171.118H143.733V161.98H162.433H173.813V162.555V195.66H181.17V162.555V161.98H210.243L190.981 195.66H221.328V189.108H202.259L221.616 155.428H192.55H162.433H161.953H136.204Z" fill="#00A651"/>
<g filter="url(#filter0_f_3401_6542)">
<path d="M16.594 257.388C20.7978 261.947 22.8699 236.894 66.301 242.584C73.4893 243.525 80.2953 248.377 79.7397 246.897C78.7093 244.152 74.2439 241.963 69.6353 240.225C30.5711 225.492 16.7695 261.171 18.9387 251.165C20.8122 242.523 18.6633 226.817 18.6633 226.817C18.6633 226.817 18.5831 237.665 17.1422 243.844C15.2761 251.846 14.6437 255.273 16.594 257.388Z" fill="white"/>
</g>
<g filter="url(#filter1_f_3401_6542)">
<path d="M19.74 249.395C22.5429 252.986 28.0005 234.593 63.1408 241.105C68.9569 242.183 73.8723 246.128 73.6329 245.005C73.189 242.923 69.8154 241.069 66.256 239.54C36.0846 226.582 19.3207 252.198 22.6123 244.924C25.455 238.641 26.0193 226.927 26.0193 226.927C26.0193 226.927 24.3332 234.935 22.2166 239.422C19.4754 245.232 18.4397 247.73 19.74 249.395Z" fill="#F8FFE2"/>
</g>
<path d="M19.7401 249.395C22.5431 252.985 28.0007 234.593 63.1409 241.104C68.957 242.182 73.8724 246.128 73.633 245.005C73.1891 242.922 69.8445 240.999 66.2562 239.539C35.1158 226.873 19.3208 252.198 22.6124 244.923C25.4551 238.64 26.0194 226.927 26.0194 226.927C26.0194 226.927 24.3333 234.934 22.2167 239.421C19.4755 245.232 18.4398 247.729 19.7401 249.395Z" fill="white"/>
<g opacity="0.4" filter="url(#filter2_f_3401_6542)">
<path d="M240.111 53.9925C250.554 60.4351 272.929 40.7406 277.588 45.321C282.405 50.0571 275.49 52.7368 269.281 62.3225C265.176 68.6601 260.408 79.5017 260.408 79.5017C260.408 79.5017 263.359 60.6041 271.365 52.0236C279.108 43.7255 249.238 65.1532 237.425 57.9104C222.449 48.7278 236.199 14.7104 229.632 26.8042C223.959 37.2489 208.454 50.2167 208.454 50.2167C208.454 50.2167 217.7 39.5657 221.661 31.9876C226.791 22.1735 229.144 18.1511 232.785 18.2038C240.635 18.3173 229.668 47.5498 240.111 53.9925Z" fill="white"/>
</g>
<g filter="url(#filter3_f_3401_6542)">
<path d="M239.642 47.9106C245.846 53.9182 264.203 43.7652 266.713 47.618C269.308 51.6019 264.15 52.398 258.432 58.0477C254.652 61.783 249.736 68.5137 249.736 68.5137C249.736 68.5137 254.621 55.9708 261.422 51.2839C267.999 46.7513 244.228 56.962 237.204 50.1973C228.299 41.6209 242.894 20.3188 236.551 27.6381C231.073 33.9594 218.454 40.5278 218.454 40.5278C218.454 40.5278 226.42 34.6051 230.289 29.9954C235.299 24.0255 237.524 21.6167 240.019 22.2036C245.398 23.4688 233.439 41.9029 239.642 47.9106Z" fill="#F8FFE2"/>
</g>
<path d="M239.642 47.9106C245.846 53.9182 264.203 43.7652 266.713 47.618C269.308 51.6019 264.15 52.398 258.432 58.0477C254.652 61.783 249.736 68.5137 249.736 68.5137C249.736 68.5137 254.621 55.9708 261.422 51.2839C267.999 46.7513 244.228 56.962 237.204 50.1973C228.299 41.6209 242.894 20.3188 236.551 27.6381C231.073 33.9594 218.454 40.5278 218.454 40.5278C218.454 40.5278 226.42 34.6051 230.289 29.9954C235.299 24.0255 237.524 21.6167 240.019 22.2036C245.398 23.4688 233.439 41.9029 239.642 47.9106Z" fill="white"/>
<defs>
<filter id="filter0_f_3401_6542" x="0.282332" y="211.696" width="94.6101" height="61.3706" filterUnits="userSpaceOnUse" color-interpolation-filters="sRGB">
<feFlood flood-opacity="0" result="BackgroundImageFix"/>
<feBlend mode="normal" in="SourceGraphic" in2="BackgroundImageFix" result="shape"/>
<feGaussianBlur stdDeviation="7.56049" result="effect1_foregroundBlur_3401_6542"/>
</filter>
<filter id="filter1_f_3401_6542" x="15.3411" y="223.086" width="62.1415" height="30.6207" filterUnits="userSpaceOnUse" color-interpolation-filters="sRGB">
<feFlood flood-opacity="0" result="BackgroundImageFix"/>
<feBlend mode="normal" in="SourceGraphic" in2="BackgroundImageFix" result="shape"/>
<feGaussianBlur stdDeviation="1.92075" result="effect1_foregroundBlur_3401_6542"/>
</filter>
<filter id="filter2_f_3401_6542" x="190.992" y="0.740845" width="105.672" height="96.2233" filterUnits="userSpaceOnUse" color-interpolation-filters="sRGB">
<feFlood flood-opacity="0" result="BackgroundImageFix"/>
<feBlend mode="normal" in="SourceGraphic" in2="BackgroundImageFix" result="shape"/>
<feGaussianBlur stdDeviation="8.7312" result="effect1_foregroundBlur_3401_6542"/>
</filter>
<filter id="filter3_f_3401_6542" x="213.794" y="17.4581" width="58.2683" height="55.7155" filterUnits="userSpaceOnUse" color-interpolation-filters="sRGB">
<feFlood flood-opacity="0" result="BackgroundImageFix"/>
<feBlend mode="normal" in="SourceGraphic" in2="BackgroundImageFix" result="shape"/>
<feGaussianBlur stdDeviation="2.3299" result="effect1_foregroundBlur_3401_6542"/>
</filter>
</defs>
</svg>
